# xmcd CD database file
#
# Track frame offsets:
#	150
#	14728
#	31314
#	48218
#	59460
#	73502
#	85116
#	102320
#	116818
#	130382
#	150440
#	165366
#	177402
#	188953
#	202847
#	222917
#
# Disc length: 3165 seconds
#
# Revision: 0
# Processed by: cddbd v1.5.2PL0 Copyright (c) Steve Scherf et al.
# Submitted via: CDex 1.51
#
DISCID=da0c5b10
DTITLE=e la luna? - Cinema
DYEAR=2013
DGENRE=Jazz
TTITLE0=Cinema
TTITLE1=Ti guarderò nel cudre
TTITLE2=La notte è fatta per rubare
TTITLE3=Sinnó me moro
TTITLE4=El negro zumbon
TTITLE5=Film waltz
TTITLE6=Nothing to lose
TTITLE7=Come in un film
TTITLE8=A doppia faccia
TTITLE9=Ultimo tango a parigi
TTITLE10=Breve amore
TTITLE11=South american way
TTITLE12=Colonna donora
TTITLE13=Parlami di me
TTITLE14=Metti, una sera a cena
TTITLE15=Respiro della terra
EXTD=YEAR: 2013
EXTT0=
EXTT1=
EXTT2=
EXTT3=
EXTT4=
EXTT5=
EXTT6=
EXTT7=
EXTT8=
EXTT9=
EXTT10=
EXTT11=
EXTT12=
EXTT13=
EXTT14=
EXTT15=
PLAYORDER=
